<svg xmlns="http://www.w3.org/2000/svg" width="10.177" height="17.746" viewBox="0 0 10.177 17.746"><defs><style>.a{fill:#333;stroke:#333;stroke-width:0.25px;}</style></defs><path class="a" d="M116.73,16.5h-2.8a.847.847,0,0,1-.847-.847V9.327h-1.633a.847.847,0,0,1-.847-.847V5.773a.847.847,0,0,1,.847-.847h1.633V3.569A4.63,4.63,0,0,1,114.3.261,4.387,4.387,0,0,1,117.544-1l2.136,0a.849.849,0,0,1,.847.847V2.366a.847.847,0,0,1-.847.847h-1.439c-.437,0-.55.089-.574.116-.041.044-.085.171-.085.519V4.922h1.992a.882.882,0,0,1,.42.106.849.849,0,0,1,.437.742V8.476a.847.847,0,0,1-.847.847h-2v6.318A.859.859,0,0,1,116.73,16.5Zm-2.563-1.36h2.341V8.821a.543.543,0,0,1,.543-.543h2.184V6.026h-2.184a.545.545,0,0,1-.543-.543V4.016a1.67,1.67,0,0,1,.328-1.148,1.662,1.662,0,0,1,1.285-.441h1.206V.36l-1.876,0a3.1,3.1,0,0,0-3.287,3.386V5.479a.545.545,0,0,1-.543.543h-1.835V8.274h1.835a.545.545,0,0,1,.543.543v6.318ZM119.676.029Z" transform="translate(-110.475 1.125)"/></svg>