<svg xmlns="http://www.w3.org/2000/svg" width="150" height="114.224" viewBox="0 0 150 114.224"><defs><style>.a{opacity:0.2;}.b{fill:#fff;}</style></defs><g class="a" transform="translate(150 114.224) rotate(180)"><path class="b" d="M233.244,58.234H166.178v57.635q0,14.374,5.162,23.883a49.116,49.116,0,0,0,13.4,15.794,71.893,71.893,0,0,0,18.339,10.105q10.1,3.818,19.983,6.807l9.883-17.96a101.877,101.877,0,0,1-12.8-5.763,36.877,36.877,0,0,1-8.682-6.365,21.464,21.464,0,0,1-4.944-7.855,31.037,31.037,0,0,1-1.571-10.4h28.3Zm82.934,0H249.262v57.635q0,14.374,5.162,23.883a49.482,49.482,0,0,0,13.327,15.794,70.634,70.634,0,0,0,18.263,10.105q10.1,3.818,19.983,6.807l10.031-17.96a101.881,101.881,0,0,1-12.8-5.763,36.972,36.972,0,0,1-8.684-6.365,21.506,21.506,0,0,1-4.94-7.855,31.038,31.038,0,0,1-1.571-10.4h28.144Z" transform="translate(-166.178 -58.234)"/></g></svg>