<svg xmlns="http://www.w3.org/2000/svg" width="48.168" height="42.423" viewBox="0 0 48.168 42.423"><defs><style>.a{fill:#333;}</style></defs><g transform="translate(0 -30.532)"><circle class="a" cx="1.411" cy="1.411" r="1.411" transform="translate(34.056 56.021)"/><path class="a" d="M45.346,50.619v-7.3a1.411,1.411,0,0,0-1.411-1.411H42.8L39,31.461a1.411,1.411,0,0,0-1.806-.844L21.58,36.265H4.234A4.238,4.238,0,0,0,0,40.5V68.722a4.238,4.238,0,0,0,4.234,4.234h39.7a1.411,1.411,0,0,0,1.411-1.411v-7.3a4.24,4.24,0,0,0,2.822-3.991V54.61a4.24,4.24,0,0,0-2.822-3.991Zm-13.7-15a7.063,7.063,0,0,0,7.061,3.3L39.8,41.909H14.275Zm6.062.555a4.251,4.251,0,0,1-3.314-1.55l2.43-.879ZM4.234,39.087H13.78l-7.8,2.822H4.234a1.411,1.411,0,1,1,0-2.822Zm0,31.046a1.413,1.413,0,0,1-1.411-1.411V44.489a4.214,4.214,0,0,0,1.411.243h38.29v5.645H35.468a7.056,7.056,0,0,0,0,14.112h7.056v5.645Zm41.112-9.878a1.413,1.413,0,0,1-1.411,1.411H35.468a4.234,4.234,0,1,1,0-8.467h8.467a1.413,1.413,0,0,1,1.411,1.411Z" transform="translate(0 0)"/></g></svg>