<svg xmlns="http://www.w3.org/2000/svg" width="97.065" height="81.261" viewBox="0 0 97.065 81.261"><defs><style>.a{fill:none;stroke:#c09162;stroke-linecap:round;stroke-linejoin:round;stroke-width:5px;}.b{fill:#c09162;}</style></defs><g transform="translate(-363.618 -57.059)"><path class="a" d="M440.665,109.028a38.138,38.138,0,1,1-4.927-32.847" transform="translate(0)"/><g transform="translate(401.29 69.88)"><g transform="translate(0 0)"><path class="b" d="M468,73.15a2.968,2.968,0,0,0-4.2,0l-35.555,35.556L414.576,95.038a2.968,2.968,0,0,0-4.275,4.12c.025.026.051.052.078.077L426.145,115a2.968,2.968,0,0,0,4.2,0L468,77.347A2.968,2.968,0,0,0,468,73.15Z" transform="translate(-409.471 -72.281)"/></g></g></g></svg>