<svg xmlns="http://www.w3.org/2000/svg" width="54.204" height="37.591" viewBox="0 0 54.204 37.591"><defs><style>.a{fill:#333;}</style></defs><g transform="translate(-3 -80.02)"><g transform="translate(7.722 80.02)"><g transform="translate(0 0)"><path class="a" d="M96.364,98.776,93.15,94.637a.172.172,0,0,1-.029-.058L87.967,84.327a1.556,1.556,0,0,0-1.4-.861H79.217a.16.16,0,0,1-.16-.16V81.583a1.565,1.565,0,0,0-1.563-1.563H48.774a1.563,1.563,0,1,0,0,3.126h27a.16.16,0,0,1,.16.16V95.369a1.565,1.565,0,0,0,1.564,1.563H90.9a.163.163,0,0,1,.127.062l2.51,3.233a.165.165,0,0,1,.033.1v8.887a.16.16,0,0,1-.16.16H90.156a.159.159,0,0,1-.155-.121,6.733,6.733,0,0,0-13.067,0,.158.158,0,0,1-.155.121H66.606a.16.16,0,0,1-.156-.121,6.732,6.732,0,0,0-13.066,0,.16.16,0,0,1-.156.121H48.774a1.563,1.563,0,1,0,0,3.126h4.485a.16.16,0,0,1,.155.12,6.732,6.732,0,0,0,13.008,0,.16.16,0,0,1,.155-.12H76.81a.161.161,0,0,1,.155.12,6.732,6.732,0,0,0,13.007,0,.161.161,0,0,1,.155-.119h5a1.565,1.565,0,0,0,1.563-1.563v-11.2A1.571,1.571,0,0,0,96.364,98.776ZM89.109,93.73a.158.158,0,0,1-.136.077H79.217a.161.161,0,0,1-.16-.16V86.753a.16.16,0,0,1,.16-.16h6.29a.159.159,0,0,1,.143.089l3.466,6.892A.159.159,0,0,1,89.109,93.73ZM59.918,114.485a3.607,3.607,0,1,1,3.606-3.607A3.61,3.61,0,0,1,59.918,114.485Zm23.551,0a3.607,3.607,0,1,1,3.607-3.607A3.611,3.611,0,0,1,83.468,114.485Z" transform="translate(-47.21 -80.02)"/></g></g><g transform="translate(5.814 100.802)"><path class="a" d="M40.083,276a1.4,1.4,0,0,1-1.4,1.4H30.753a1.4,1.4,0,1,1,0-2.806h7.927a1.4,1.4,0,0,1,1.4,1.4Z" transform="translate(-29.35 -274.6)"/></g><g transform="translate(3 94.023)"><g transform="translate(0 0)"><path class="a" d="M20.511,212.533a1.4,1.4,0,0,1-1.4,1.4H4.4a1.4,1.4,0,0,1,0-2.806h14.7A1.4,1.4,0,0,1,20.511,212.533Z" transform="translate(-3 -211.13)"/></g></g><g transform="translate(5.814 87.245)"><g transform="translate(0 0)"><path class="a" d="M46.861,149.073a1.4,1.4,0,0,1-1.4,1.4h-14.7a1.4,1.4,0,1,1,0-2.806h14.7a1.4,1.4,0,0,1,1.4,1.4Z" transform="translate(-29.35 -147.67)"/></g></g></g></svg>