<svg xmlns="http://www.w3.org/2000/svg" width="38.99" height="53.248" viewBox="0 0 38.99 53.248"><defs><style>.a{fill:#333;stroke:#333;}</style></defs><g transform="translate(-432.483 -3629.628)"><g transform="translate(433 3630.128)"><path class="a" d="M94,51.522h-.071a3.907,3.907,0,0,0-2.634,1,4.107,4.107,0,0,0-3.814-2.783,3.957,3.957,0,0,0-2.826,1.216,4.048,4.048,0,0,0-3.613-2.311h-.076a3.709,3.709,0,0,0-2.326.775V39.606a4.092,4.092,0,1,0-8.174,0l-.019,19.472-1.1-1.338a5.558,5.558,0,0,0-3.928-2.063c-1.507-.1-4.508,1.7-5.056,2.244-.429.429-.194,1.085-.009,1.441l9.119,17.528A9.612,9.612,0,0,0,77.935,82.2H88.441V82.2c5.327,0,9.646-4.622,9.651-10.3,0-2.539-.008-4.432-.006-5.966.005-4.1,0-5.619-.009-10.14A4.184,4.184,0,0,0,94,51.522Zm2.37,14.4c0,1.534,0,3.435-.007,5.974,0,4.737-3.581,8.6-7.972,8.6H77.936a7.914,7.914,0,0,1-6.952-4.4L62.246,59.309a.719.719,0,0,1,.177-.884h0l.033-.03a3.784,3.784,0,0,1,2.841-1.02,3.868,3.868,0,0,1,2.728,1.445l2.609,3.174a.852.852,0,0,0,1.511-.54L72.16,39.6a2.4,2.4,0,1,1,4.775,0V52.78c0,.046,0,.092,0,.139,0,.02,0,.04,0,.06v5.6a.872.872,0,0,0,.8.88.852.852,0,0,0,.909-.85v-5.8a2.39,2.39,0,0,1,2.326-2.459h.076a2.488,2.488,0,0,1,2.393,2.57v5.125a.872.872,0,0,0,.8.88.852.852,0,0,0,.909-.85V54.03a2.356,2.356,0,1,1,4.688,0v3.786a.872.872,0,0,0,.8.88.852.852,0,0,0,.909-.85V55.779a2.476,2.476,0,0,1,2.4-2.553H94a2.473,2.473,0,0,1,2.368,2.567C96.377,60.312,96.375,61.825,96.37,65.926Z" transform="translate(-60.119 -29.957)"/><path class="a" d="M124.6,8.435a.852.852,0,0,0,.852-.852,5.906,5.906,0,0,1,11.812,0,.852.852,0,0,0,1.7,0,7.611,7.611,0,0,0-15.221,0A.852.852,0,0,0,124.6,8.435Z" transform="translate(-116.959 0)"/></g></g></svg>