<svg xmlns="http://www.w3.org/2000/svg" width="17.419" height="17.419" viewBox="0 0 17.419 17.419"><defs><style>.a{fill:#333;}</style></defs><g transform="translate(0 0)"><path class="a" d="M10.315,5.838a4.469,4.469,0,1,0,4.469,4.469A4.469,4.469,0,0,0,10.315,5.838Zm0,7.37a2.9,2.9,0,1,1,2.9-2.9A2.9,2.9,0,0,1,10.315,13.208Z" transform="translate(-1.603 -1.601)"/><path class="a" d="M12.3.055c-1.6-.075-5.572-.071-7.176,0A5.205,5.205,0,0,0,1.47,1.464C-.205,3.139.009,5.4.009,8.707c0,3.388-.189,5.593,1.461,7.243,1.682,1.681,3.972,1.461,7.243,1.461,3.356,0,4.514,0,5.7-.457,1.613-.626,2.831-2.069,2.95-4.659.075-1.6.071-5.572,0-7.176C17.22,2.061,15.579.206,12.3.055Zm2.537,14.786c-1.1,1.1-2.622,1-6.146,1-3.629,0-5.084.054-6.146-1.011-1.223-1.217-1-3.172-1-6.135,0-4.01-.412-6.9,3.613-7.1.925-.033,1.2-.044,3.524-.044l.033.022c3.868,0,6.9-.4,7.085,3.619.041.918.051,1.194.051,3.518,0,3.587.067,5.051-1.012,6.135Z" transform="translate(0 0)"/><circle class="a" cx="1.044" cy="1.044" r="1.044" transform="translate(12.315 3.017)"/></g></svg>