<svg xmlns="http://www.w3.org/2000/svg" width="69.516" height="77.261" viewBox="0 0 69.516 77.261"><defs><style>.a{fill:#c09162;stroke:#c09162;}</style></defs><g transform="translate(-25.5 0.5)"><g transform="translate(72.174)"><path class="a" d="M337.489,0A1.49,1.49,0,0,0,336,1.489V8.341a1.489,1.489,0,0,0,2.979,0V1.489A1.49,1.49,0,0,0,337.489,0Z" transform="translate(-336 0)"/></g><g transform="translate(37.916 46.471)"><g transform="translate(0)"><path class="a" d="M107.489,312a1.489,1.489,0,1,0,1.489,1.49A1.49,1.49,0,0,0,107.489,312Z" transform="translate(-106 -312)"/></g></g><g transform="translate(26 15.788)"><path class="a" d="M94.516,133.7a5.965,5.965,0,0,0-5.958-5.958H77.439a37.4,37.4,0,0,0,2.284-14.219,16.962,16.962,0,0,0-.105-1.712,5.957,5.957,0,0,0-11.912.143v1.489c0,9.42-12.1,14.713-21.226,16.983a4.474,4.474,0,0,0-4.1-2.684H27.489A1.49,1.49,0,0,0,26,129.236v35.747a1.49,1.49,0,0,0,1.489,1.489H42.384a4.474,4.474,0,0,0,4.081-2.653q1.134.291,2.105.546A48.31,48.31,0,0,0,63.6,166.472H79.621a5.955,5.955,0,0,0,4.95-9.27,5.976,5.976,0,0,0,2.99-8.94,5.956,5.956,0,0,0,2.968-8.933A5.96,5.96,0,0,0,94.516,133.7ZM43.874,162a1.491,1.491,0,0,1-1.489,1.489H28.979V130.725H42.384a1.491,1.491,0,0,1,1.489,1.489Zm44.684-25.321H81.11a1.489,1.489,0,1,0,0,2.979h4.468a2.979,2.979,0,0,1,0,5.958H78.131a1.489,1.489,0,1,0,0,2.979H82.6a2.979,2.979,0,1,1,0,5.958H75.152a1.489,1.489,0,1,0,0,2.979h4.468a2.979,2.979,0,0,1,0,5.958H63.6a45.44,45.44,0,0,1-14.28-2.01q-1.126-.294-2.471-.64V133.41c10.779-2.568,23.831-8.835,23.831-19.963v-1.489a2.979,2.979,0,0,1,5.958,0v0c0,.647.808,8.592-2.432,15.788H69.195a1.489,1.489,0,1,0,0,2.979H88.558a2.979,2.979,0,0,1,0,5.958Z" transform="translate(-26 -106)"/></g><g transform="translate(37.916 52.429)"><g transform="translate(0)"><path class="a" d="M107.489,352A1.49,1.49,0,0,0,106,353.49v11.916a1.489,1.489,0,1,0,2.979,0V353.49A1.49,1.49,0,0,0,107.489,352Z" transform="translate(-106 -352)"/></g></g><g transform="translate(54.3 18.767)"><path class="a" d="M223.447,126h-5.958a1.489,1.489,0,0,0,0,2.979h5.958a1.489,1.489,0,0,0,0-2.979Z" transform="translate(-216 -126)"/></g><g transform="translate(84.089 18.767)"><path class="a" d="M423.447,126h-5.958a1.489,1.489,0,0,0,0,2.979h5.958a1.489,1.489,0,0,0,0-2.979Z" transform="translate(-416 -126)"/></g><g transform="translate(80.6 6.129)"><path class="a" d="M399.325,41.587a1.49,1.49,0,0,0-2.107,0L393.006,45.8a1.49,1.49,0,0,0,2.107,2.107l4.212-4.212A1.49,1.49,0,0,0,399.325,41.587Z" transform="translate(-392.57 -41.151)"/></g><g transform="translate(59.535 6.129)"><path class="a" d="M257.905,45.8l-4.212-4.212a1.49,1.49,0,1,0-2.107,2.107l4.212,4.212a1.49,1.49,0,1,0,2.107-2.107Z" transform="translate(-251.15 -41.151)"/></g></g></svg>