<svg xmlns="http://www.w3.org/2000/svg" width="73.871" height="76.261" viewBox="0 0 73.871 76.261"><defs><style>.a{fill:#c19260;}</style></defs><g transform="translate(-8.022 0)"><g transform="translate(8.022 0)"><g transform="translate(0 0)"><path class="a" d="M81.294,45.473l-6.248-12.5A33.522,33.522,0,1,0,14.465,53.271a35.541,35.541,0,0,1,6.964,20.756,2.234,2.234,0,0,0,2.234,2.234H54.942a2.234,2.234,0,0,0,2.234-2.234V68.188a1.163,1.163,0,0,1,1.162-1.162H68.348a6.71,6.71,0,0,0,6.7-6.7v-6.7h1.208a5.63,5.63,0,0,0,5.036-8.148ZM77.246,48.6a1.146,1.146,0,0,1-.988.551H72.816a2.234,2.234,0,0,0-2.234,2.234v8.937a2.237,2.237,0,0,1-2.234,2.234H58.338a5.637,5.637,0,0,0-5.63,5.63v3.6H25.829a40.328,40.328,0,0,0-7.757-21.159,29.052,29.052,0,1,1,52.51-17.121,2.235,2.235,0,0,0,.236,1L77.3,47.471A1.145,1.145,0,0,1,77.246,48.6Z" transform="translate(-8.022 0)"/></g></g><g transform="translate(21.429 13.405)"><g transform="translate(0)"><path class="a" d="M118.139,90A20.108,20.108,0,1,0,138.247,110.1,20.131,20.131,0,0,0,118.139,90ZM115.9,125.582a15.609,15.609,0,0,1-8.8-4.409l8.8-6.6v11.011ZM104.418,117.6A15.634,15.634,0,0,1,115.9,94.624v14.362h0Zm15.956,7.981V114.571l8.8,6.6A15.609,15.609,0,0,1,120.373,125.582Zm11.487-7.981-11.487-8.616V94.624A15.634,15.634,0,0,1,131.861,117.6Z" transform="translate(-98.031 -89.995)"/></g></g></g></svg>