<svg xmlns="http://www.w3.org/2000/svg" width="29.662" height="14.213" viewBox="0 0 29.662 14.213"><defs><style>.a{fill:#fff;stroke:#fff;stroke-width:0.25px;}</style></defs><g transform="translate(35.255 1.485)"><path class="a" d="M-5.89,5.98l-6.32,6.5a.429.429,0,0,1-.61-.01.526.526,0,0,1,0-.72l5.47-5.63h-27.3a.5.5,0,0,1-.48-.49.5.5,0,0,1,.14-.35.493.493,0,0,1,.32-.16H-7.35L-12.82-.5a.532.532,0,0,1,.02-.74.423.423,0,0,1,.3-.12.426.426,0,0,1,.31.14L-5.9,5.26A.526.526,0,0,1-5.89,5.98Z"/></g></svg>