<svg xmlns="http://www.w3.org/2000/svg" width="18.83" height="16.182" viewBox="0 0 18.83 16.182"><defs><style>.a{fill:#333;}</style></defs><path class="a" d="M.4,16.645A10.682,10.682,0,0,0,6.33,18.434a10.68,10.68,0,0,0,8-3.51,11.686,11.686,0,0,0,3-8.03A4.78,4.78,0,0,0,18.955,3.7a.6.6,0,0,0-.9-.537,2.367,2.367,0,0,1-2,.351,4.1,4.1,0,0,0-5.03-.709A4.315,4.315,0,0,0,8.811,6.816,9.741,9.741,0,0,1,2.42,3.162a.581.581,0,0,0-.972.083,4.515,4.515,0,0,0-.093,4.284.641.641,0,0,0-.517.645A4.477,4.477,0,0,0,2.3,11.49a.642.642,0,0,0-.152.645,4.392,4.392,0,0,0,2.416,2.709A6.65,6.65,0,0,1,.792,15.5.625.625,0,0,0,.4,16.645Zm6.091-1.588a.628.628,0,0,0-.35-1.115,3.062,3.062,0,0,1-2.436-1.326,4.022,4.022,0,0,0,.812-.136.63.63,0,0,0-.038-1.211A3.106,3.106,0,0,1,2.168,9.094a3.931,3.931,0,0,0,.907.126.628.628,0,0,0,.339-1.142A3.161,3.161,0,0,1,2.148,4.7,10.836,10.836,0,0,0,9.472,8.124a.613.613,0,0,0,.608-.761A3.082,3.082,0,0,1,11.594,3.9a2.94,2.94,0,0,1,3.717.591,2.879,2.879,0,0,0,2.158.257,3.968,3.968,0,0,1-1.085,1.335.633.633,0,0,0-.253.54,10.4,10.4,0,0,1-2.662,7.436A9.528,9.528,0,0,1,6.33,17.188a9.581,9.581,0,0,1-3.2-.549,7.863,7.863,0,0,0,3.366-1.582Z" transform="translate(-0.124 -2.251)"/></svg>