<svg xmlns="http://www.w3.org/2000/svg" width="22.137" height="16.827" viewBox="0 0 22.137 16.827"><defs><style>.a{fill:#333;stroke:#333;stroke-width:0.25px;}</style></defs><g transform="translate(0.126 0.125)"><path class="a" d="M197.1,109.279l-4.835-2.646a.888.888,0,0,0-1.314.779v5.246a.887.887,0,0,0,1.309.782l4.835-2.6a.888.888,0,0,0,.006-1.561ZM192.229,112v-3.921l3.614,1.977Zm0,0" transform="translate(-182.784 -101.97)"/><path class="a" d="M21.725,3.912V3.9a5.005,5.005,0,0,0-.965-2.54A3.561,3.561,0,0,0,18.4.256L18.292.243l-.038,0C15.36.029,10.99,0,10.946,0h-.008c-.044,0-4.414.029-7.333.239l-.039,0-.1.012A3.472,3.472,0,0,0,1.119,1.4,5.246,5.246,0,0,0,.163,3.89l0,.022C.154,3.986,0,5.731,0,7.483V9.121c0,1.752.154,3.5.161,3.571V12.7a4.956,4.956,0,0,0,.961,2.509A3.634,3.634,0,0,0,3.56,16.3c.089.01.166.019.218.028l.051.007c1.671.159,6.909.237,7.131.24h.013c.044,0,4.413-.029,7.307-.239l.038,0,.123-.014a3.392,3.392,0,0,0,2.325-1.112,5.245,5.245,0,0,0,.957-2.494l0-.022c.007-.073.161-1.818.161-3.57V7.483c0-1.752-.155-3.5-.161-3.57ZM20.6,9.121c0,1.622-.142,3.292-.155,3.445a4.072,4.072,0,0,1-.629,1.777,2.109,2.109,0,0,1-1.514.7l-.137.015c-2.8.2-7,.233-7.2.235-.217,0-5.379-.082-7-.233-.083-.014-.173-.024-.267-.035a2.4,2.4,0,0,1-1.64-.685l-.012-.013a3.7,3.7,0,0,1-.617-1.759c-.01-.116-.155-1.806-.155-3.45V7.483c0-1.62.141-3.288.155-3.444a3.989,3.989,0,0,1,.629-1.777A2.213,2.213,0,0,1,3.612,1.53l.1-.013c2.839-.2,7.074-.234,7.226-.235s4.385.031,7.2.235l.113.013a2.3,2.3,0,0,1,1.571.712l.005.006a3.754,3.754,0,0,1,.617,1.785c.01.109.155,1.8.155,3.451Zm0,0"/></g></svg>